<svg viewBox="0 0 18 18" xmlns="http://www.w3.org/2000/svg"><path fill-rule="evenodd" clip-rule="evenodd" d="M9.028.5A8.517 8.517 0 0 0 .5 9.028c0 3.752 2.445 6.936 5.856 8.073.455.057.569-.17.569-.398v-1.478c-2.388.512-2.9-1.137-2.9-1.137-.398-.966-.967-1.25-.967-1.25-.796-.512.057-.512.057-.512.853.056 1.308.852 1.308.852.739 1.308 1.99.91 2.502.683.056-.569.284-.91.568-1.137-1.876-.228-3.866-.967-3.866-4.208 0-.91.341-1.705.853-2.274-.114-.227-.398-1.08.057-2.274 0 0 .739-.227 2.33.853a8.999 8.999 0 0 1 2.161-.284 9 9 0 0 1 2.16.284c1.65-1.08 2.332-.853 2.332-.853.454 1.194.17 2.047.056 2.274.569.569.853 1.365.853 2.274 0 3.298-1.99 3.98-3.866 4.208.284.284.569.796.569 1.591v2.332c0 .227.17.511.568.398a8.47 8.47 0 0 0 5.8-8.074C17.555 4.31 13.746.5 9.027.5Z"/></svg>