<svg xmlns="http://www.w3.org/2000/svg" width="48" height="48" fill="none"><path fill="#000" fill-rule="evenodd" d="M24.042 11.25A12.775 12.775 0 0 0 11.25 24.042c0 5.629 3.667 10.404 8.784 12.11.682.085.853-.256.853-.597v-2.217c-3.582.767-4.35-1.706-4.35-1.706-.596-1.45-1.45-1.876-1.45-1.876-1.193-.768.086-.768.086-.768 1.28.086 1.961 1.28 1.961 1.28 1.11 1.961 2.985 1.364 3.753 1.023.085-.853.426-1.364.853-1.706-2.815-.34-5.8-1.45-5.8-6.31 0-1.365.512-2.559 1.28-3.412-.17-.34-.597-1.62.085-3.41 0 0 1.109-.342 3.497 1.278 1.023-.256 2.131-.426 3.24-.426 1.109 0 2.217.17 3.24.426 2.474-1.62 3.497-1.279 3.497-1.279.683 1.791.256 3.07.086 3.411.853.853 1.279 2.047 1.279 3.412 0 4.946-2.985 5.97-5.8 6.31.427.427.854 1.194.854 2.388v3.497c0 .341.255.767.852.597a12.706 12.706 0 0 0 8.7-12.11c.084-6.993-5.63-12.707-12.708-12.707Z" clip-rule="evenodd"/></svg>