<svg class="link_icon" xmlns="http://www.w3.org/2000/svg" width="200" height="200" fill="none" viewBox="0 0 200 200"><g clip-path="url(#a)"><rect width="200" height="200" fill="#000" rx="100" style="fill:#000;fill-opacity:1"/><path fill="url(#b)" d="M169.424 85.85c.624-3.141.576-6.684.576-10.85h-20c0 5.126-.052 6.23-.195 6.953a10 10 0 0 1-7.852 7.852c-.722.143-1.827.195-6.953.195h-5l-2 10 2 10h5c4.166 0 7.709.048 10.85-.576a30.01 30.01 0 0 0 23.574-23.574"/><path fill="url(#c)" d="M150 70v5l10 2 10-2v-5c0-16.568-13.431-30-30-30v20c5.523 0 10 4.477 10 10"/><path fill="url(#d)" d="M130 70c0-5.523 4.477-10 10-10l2-10-2-10c-16.569 0-30 13.432-30 30z"/><path fill="url(#e)" d="M110 150V70l10-2 10 2v80c0 5.523-4.477 10-10 10s-10-4.477-10-10"/><path fill="url(#f)" d="M130 90v20H90l-2-10 2-10z"/><path fill="url(#g)" d="M30.576 114.15C29.952 117.291 30 120.834 30 125h20c0-5.126.051-6.231.195-6.953a10 10 0 0 1 7.852-7.852c.722-.144 1.827-.195 6.953-.195h5l2-10-2-10h-5c-4.166 0-7.709-.048-10.85.576a30.01 30.01 0 0 0-23.574 23.574"/><path fill="url(#h)" d="M30 125v5c0 16.569 13.432 30 30 30v-20c-5.523 0-10-4.477-10-10v-5l-10-2z"/><path fill="url(#i)" d="M70 130c0 5.523-4.477 10-10 10l-2 10 2 10c16.569 0 30-13.431 30-30z"/><path fill="url(#j)" d="M70 50c0-5.523 4.477-10 10-10s10 4.477 10 10v80l-10 2-10-2z"/><g clip-path="url(#k)" filter="url(#l)"><mask id="n" width="140" height="120" x="30" y="40" maskUnits="userSpaceOnUse" style="mask-type:alpha"><path fill="#d9d9d9" d="M90 40H70v84H60V90H30v70h60zm80 0h-60v50h60zm0 70h-60v50h60z" style="fill:#d9d9d9;fill:color(display-p3 .851 .851 .851);fill-opacity:1"/></mask><g fill="#fff" filter="url(#m)" mask="url(#n)"><path d="M156.5 70c0-9.113-7.387-16.5-16.5-16.5s-16.5 7.387-16.5 16.5v26.5H135c11.874 0 21.5-9.626 21.5-21.5zm7 5c0 15.74-12.76 28.5-28.5 28.5h-11.5V150h-7v-46.5h-15v-7h15V70c0-12.979 10.521-23.5 23.5-23.5s23.5 10.521 23.5 23.5zm-120 55c0 9.113 7.387 16.5 16.5 16.5s16.5-7.387 16.5-16.5V50h7v80c0 12.979-10.521 23.5-23.5 23.5S36.5 142.979 36.5 130v-9.5C36.5 107.521 47.021 97 60 97h9v7h-9c-9.113 0-16.5 7.387-16.5 16.5z" style="fill:#fff;fill-opacity:1"/></g><mask id="q" width="110" height="34" x="60" y="90" maskUnits="userSpaceOnUse" style="mask-type:alpha"><path fill="#d9d9d9" d="M90 110h80V90H90zM60 90h10v34H60z" style="fill:#d9d9d9;fill:color(display-p3 .851 .851 .851);fill-opacity:1"/></mask><g filter="url(#p)" mask="url(#q)"><path fill="#fff" fill-rule="evenodd" d="M76.5 96.5V50h7v46.5H135c11.874 0 21.5-9.626 21.5-21.5s-9.626-21.5-21.5-21.5h-15v-7h15c15.74 0 28.5 12.76 28.5 28.5s-12.76 28.5-28.5 28.5H83.5V130c0 12.979-10.521 23.5-23.5 23.5S36.5 142.979 36.5 130v-9.5C36.5 107.521 47.021 97 60 97zm-16.5 50c-9.113 0-16.5-7.387-16.5-16.5v-9.5c0-9.113 7.387-16.5 16.5-16.5l16.5-.5V130c0 9.113-7.387 16.5-16.5 16.5" clip-rule="evenodd" style="fill:#fff;fill-opacity:1"/></g></g></g><defs><linearGradient id="b" x1="130" x2="150" y1="90" y2="75" gradientUnits="userSpaceOnUse"><stop stop-color="#09b1bd" style="stop-color:#09b1bd;stop-color:color(display-p3 .0367 .6958 .7408);stop-opacity:1"/><stop offset="1" stop-color="#04aaef" style="stop-color:#04aaef;stop-color:color(display-p3 .0149 .6666 .9382);stop-opacity:1"/></linearGradient><linearGradient id="c" x1="140" x2="150" y1="59.5" y2="75" gradientUnits="userSpaceOnUse"><stop stop-color="#709eff" style="stop-color:#709eff;stop-color:color(display-p3 .4379 .6185 .9984);stop-opacity:1"/><stop offset="1" stop-color="#04aaef" style="stop-color:#04aaef;stop-color:color(display-p3 .0149 .6666 .9382);stop-opacity:1"/></linearGradient><linearGradient id="d" x1="140" x2="130" y1="59.5" y2="70" gradientUnits="userSpaceOnUse"><stop stop-color="#709eff" style="stop-color:#709eff;stop-color:color(display-p3 .4379 .6185 .9984);stop-opacity:1"/><stop offset="1" stop-color="#a18fff" style="stop-color:#a18fff;stop-color:color(display-p3 .6315 .5615 .9988);stop-opacity:1"/></linearGradient><linearGradient id="e" x1="125" x2="125" y1="110" y2="150" gradientUnits="userSpaceOnUse"><stop stop-color="#a18fff" style="stop-color:#a18fff;stop-color:color(display-p3 .6315 .5615 .9988);stop-opacity:1"/><stop offset="1" stop-color="#ff5dbc" style="stop-color:#ff5dbc;stop-color:color(display-p3 1 .3637 .7359);stop-opacity:1"/></linearGradient><linearGradient id="f" x1="90" x2="130" y1="105" y2="105" gradientUnits="userSpaceOnUse"><stop stop-color="#04b78a" style="stop-color:#04b78a;stop-color:color(display-p3 .0152 .7158 .5395);stop-opacity:1"/><stop offset="1" stop-color="#09b1bd" style="stop-color:#09b1bd;stop-color:color(display-p3 .0367 .6958 .7408);stop-opacity:1"/></linearGradient><linearGradient id="g" x1="50" x2="70" y1="125" y2="110" gradientUnits="userSpaceOnUse"><stop stop-color="#52b704" style="stop-color:#52b704;stop-color:color(display-p3 .3215 .7187 .0163);stop-opacity:1"/><stop offset="1" stop-color="#04b78a" style="stop-color:#04b78a;stop-color:color(display-p3 .0152 .7158 .5395);stop-opacity:1"/></linearGradient><linearGradient id="h" x1="60" x2="50" y1="140" y2="125" gradientUnits="userSpaceOnUse"><stop stop-color="#a6a603" style="stop-color:#a6a603;stop-color:color(display-p3 .6518 .6501 .0132);stop-opacity:1"/><stop offset="1" stop-color="#52b704" style="stop-color:#52b704;stop-color:color(display-p3 .3215 .7187 .0163);stop-opacity:1"/></linearGradient><linearGradient id="i" x1="70" x2="60" y1="130" y2="140" gradientUnits="userSpaceOnUse"><stop stop-color="#ce9503" style="stop-color:#ce9503;stop-color:color(display-p3 .8059 .5861 .0113);stop-opacity:1"/><stop offset="1" stop-color="#a6a603" style="stop-color:#a6a603;stop-color:color(display-p3 .6518 .6501 .0132);stop-opacity:1"/></linearGradient><linearGradient id="j" x1="85" x2="85" y1="50" y2="130" gradientUnits="userSpaceOnUse"><stop stop-color="#ff6c72" style="stop-color:#ff6c72;stop-color:color(display-p3 .9989 .4252 .4464);stop-opacity:1"/><stop offset="1" stop-color="#ce9503" style="stop-color:#ce9503;stop-color:color(display-p3 .8059 .5861 .0113);stop-opacity:1"/></linearGradient><filter id="l" width="144" height="124" x="28" y="38" color-interpolation-filters="sRGB" filterUnits="userSpaceOnUse"><feFlood flood-opacity="0" result="BackgroundImageFix"/><feBlend in="SourceGraphic" in2="BackgroundImageFix" result="shape"/><feGaussianBlur result="effect1_foregroundBlur_1256_2902" stdDeviation="1"/></filter><filter id="m" width="151" height="131" x="24.5" y="34.5" color-interpolation-filters="sRGB" filterUnits="userSpaceOnUse"><feFlood flood-opacity="0" result="BackgroundImageFix"/><feBlend in="SourceGraphic" in2="BackgroundImageFix" result="shape"/><feGaussianBlur result="effect1_foregroundBlur_1256_2902" stdDeviation="6"/></filter><filter id="p" width="151" height="131" x="24.5" y="34.5" color-interpolation-filters="sRGB" filterUnits="userSpaceOnUse"><feFlood flood-opacity="0" result="BackgroundImageFix"/><feBlend in="SourceGraphic" in2="BackgroundImageFix" result="shape"/><feGaussianBlur result="effect1_foregroundBlur_1256_2902" stdDeviation="6"/></filter><clipPath id="a"><path fill="#fff" d="M0 0h200v200H0z" style="fill:#fff;fill-opacity:1"/></clipPath><clipPath id="k"><path fill="#fff" d="M0 0h140v120H0z" style="fill:#fff;fill-opacity:1" transform="translate(30 40)"/></clipPath></defs></svg>