<svg class="link_icon" xmlns="http://www.w3.org/2000/svg" width="48" height="48" fill="none"><circle cx="24" cy="24" r="24" fill="url(#a)"/><path fill="#fff" d="M24.63 27.825V27.6c0-3.758 5.242-2.948 5.242-8.01 0-2.767-2.362-4.95-5.647-4.95-3.42 0-5.783 1.935-6.233 5.4h2.52c.405-1.89 1.71-2.97 3.668-2.97 1.755 0 3.127 1.102 3.127 2.52 0 3.532-5.107 3.195-5.107 7.875v.36h2.43Zm-1.17 5.31c1.282 0 2.025-.607 2.025-1.687 0-1.103-.743-1.71-2.025-1.71-1.283 0-2.025.607-2.025 1.71 0 1.08.742 1.687 2.025 1.687Z"/><defs><linearGradient id="a" x1="7.5" x2="39.75" y1="40.5" y2="6.75" gradientUnits="userSpaceOnUse"><stop stop-color="#B378FC"/><stop offset=".51" stop-color="#EC6498"/><stop offset="1" stop-color="#EE740B"/></linearGradient></defs></svg>